<?xml version="1.0" encoding="UTF-8"?>
<svg id="Layer_1" data-name="Layer 1" xmlns="http://www.w3.org/2000/svg" viewBox="0 0 582 498">
  <path d="M356.57,28.57c21.5,15.6,42.89,31.11,64.28,46.62,29.12,21.13,58.26,42.26,87.38,63.38,24.01,17.42,48.01,34.86,72.07,52.23,1.51,1.09,2.05,2.19,2.03,4-.07,12.54-.04,25.08-.04,38.05h-49.94v233.58q0,3.9-3.96,3.9h-230.13c-.02-.13-.05-.28-.07-.41,3.57-1.8,7.16-3.54,10.69-5.39,12.98-6.76,24.17-15.66,33.04-27.4,3.59-4.74,7.47-9.27,11.2-13.9,.49-.61,.93-1.27,1.51-2.06-11.36-9.71-22.6-19.33-33.84-28.94,.13-.26,.25-.51,.38-.78h24.91v-61.23h-57.71v24.3c-.32,.12-.66,.23-.98,.35-3.51-6.24-7.18-12.38-10.45-18.73-1.54-3-2.26-6.43-3.39-9.65-2.09-6.02-5.11-11.49-9.37-16.32-1.09-1.23-1.93-3.05-2.08-4.67-1.09-12.01-6.7-21.16-16.96-27.39-18.2-11.05-36.51-21.88-54.66-33-5.81-3.56-9.36-8.7-10.71-15.77-3.84-19.99-8.18-39.9-12.47-59.8-.54-2.49-.11-3.87,1.98-5.37,35.09-25.35,70.1-50.79,105.15-76.22,27.15-19.69,54.31-39.37,81.46-59.06,.18-.1,.35-.16,.68-.34Zm10.34,221.03c-.13,.62-.23,.89-.23,1.15-.04,19.31-.05,38.62-.14,57.92-.01,1.99,.98,2.12,2.53,2.12,17.68-.02,35.37-.06,53.05,.04,2.23,.01,2.72-.75,2.71-2.81-.07-15.97-.04-31.94-.04-47.92v-10.5c-19.55,0-38.64,0-57.88,0Zm-.35,80.61v3c0,18.33,.06,36.65-.06,54.98-.01,2.66,.79,3.29,3.35,3.28,17.24-.11,34.49-.1,51.72-.01,2.38,.01,3.26-.51,3.24-3.11-.12-18.41-.06-36.83-.06-55.24,0-.95-.1-1.89-.14-2.9-19.44,0-38.54,0-58.06,0Zm-77.92-80.66c-.1,.89-.2,1.51-.2,2.12-.01,18.87,.02,37.74-.05,56.61-.01,2.11,.78,2.53,2.71,2.53,17.43-.06,34.85-.04,52.27-.05,.87,0,1.76-.1,2.77-.16v-61.06c-19.21,.01-38.23,.01-57.49,.01Z"/>
  <path d="M317.48,424.63c-4.8,6-10.62,10.23-16.88,13.89-12.95,7.57-26.95,12.51-41.47,16.03-1.19,.29-3.02-.42-4.02-1.27-13.44-11.55-23.76-25.59-32.1-41.13-5.99-11.16-10.63-22.88-13.92-35.11-.16-.57-.49-1.09-1.01-1.53,5.2,29.76,12.74,58.71,28.65,85.39-3.18,1.52-6.27,3.46-9.62,4.51-10.47,3.3-21.06,6.27-31.59,9.37-1.65,.49-2.87-.06-4.07-1.3-8.46-8.88-15.82-18.49-20.34-30.05-.13-.32-.34-.61-.79-.87,.66,12.74,1.84,25.4,5.12,38.17-21.38,6.8-42.96,12.14-65.42,12.66-2.43-11.23-4.3-22.31-7.29-33.1-2.97-10.7-7.07-21.08-10.69-31.6-.31,.1-.62,.19-.93,.28,.32,4.43,.66,8.87,.97,13.3,1.22,17.03,.65,34.04-.61,51.04-.16,2.12-1.57,2.41-3.12,2.54-5.57,.48-11.12,1.11-16.7,1.28-9.55,.3-19.12,.66-28.66,.29-5.23-.2-10.44-1.72-15.61-2.85-1.83-.41-2.53-1.57-2-3.84,5.37-23.26,10.74-46.52,15.77-69.85,3.3-15.32,6.06-30.76,9.03-46.16,.48-2.47,.5-5.06,1.22-7.45,1.9-6.32,6.25-10.21,12.72-11.53,17.84-3.6,35.7-7.13,53.54-10.69,24.31-4.84,48.62-9.66,72.94-14.48,12.82-2.55,25.63-5.14,38.46-7.6,8.38-1.62,16.33,3.53,18.71,11.78,4.03,13.98,11.44,26.22,19.88,37.89,13.99,19.33,30.82,35.96,48.94,51.38,.25,.18,.49,.32,.9,.62Z"/>
  <path d="M107.47,123.36c11.11,0,20.78,7.95,22.95,18.9,7.58,38.17,15.15,76.34,22.72,114.51,1.51,7.59,8.39,12.49,15.98,11.05,3.7-.69,7.03,.06,10.1,1.89,17.26,10.31,34.51,20.65,51.72,31.05,4.74,2.86,5.93,7.97,2.65,11.87-1.16,1.39-3.15,2.5-4.94,2.87-21.63,4.43-43.3,8.69-64.95,13.01-34.28,6.84-68.57,13.67-102.85,20.51-4.25,.85-7.34-.2-9.34-3.2-1.89-2.84-1.64-6.31,.91-9.77,12.17-16.46,24.28-32.97,36.69-49.25,1.64-2.15,4.72-3.65,7.42-4.49,8.37-2.59,12.28-8.74,10.58-17.3-7.52-37.64-15.05-75.27-22.48-112.92-3-15.35,7.74-28.75,22.84-28.75Zm-9.49,29.85c0,5.91,4.88,10.79,10.82,10.76,5.81-.01,10.81-5.11,10.74-10.94-.07-5.69-5.1-10.69-10.76-10.71-5.76-.02-10.79,5.05-10.8,10.89Z"/>
  <path d="M102.5,56.93c28.94-.65,56.98-24.07,60.55-57.33,1.98,15.65,8.38,29.16,19.8,39.97,11.4,10.76,25.01,16.73,39.49,17.32-32.99,4.31-53.21,23.44-59.46,57.98-1.84-16.02-8.25-29.38-19.64-40.27-11.41-10.92-25.17-16.41-40.74-17.68Z"/>
  <path d="M50.17,56.25c3.85,30.46,28.35,47.04,50.74,47.77-13.74,1.2-25.09,5.88-34.52,15.03-9.46,9.16-14.58,20.35-16.15,33.34-1.48-13-6.64-24.12-16.04-33.27-9.37-9.12-20.64-13.85-33.84-15.03,13.19-.98,24.42-5.75,33.73-14.76,9.38-9.06,14.62-20.17,16.08-33.09Z"/>
</svg>