<?xml version="1.0" encoding="UTF-8"?>
<svg id="Layer_1" data-name="Layer 1" xmlns="http://www.w3.org/2000/svg" xmlns:xlink="http://www.w3.org/1999/xlink" viewBox="0 0 500 250">
  <defs>
    <style>
      .cls-1, .cls-2 {
        letter-spacing: -.04em;
      }

      .cls-3 {
        fill: url(#linear-gradient);
      }

      .cls-4 {
        letter-spacing: -.11em;
      }

      .cls-5 {
        fill: url(#linear-gradient-2);
      }

      .cls-2, .cls-6 {
        font-family: Arial-BoldMT, Arial;
        font-size: 95.17px;
        font-weight: 700;
      }
    </style>
    <linearGradient id="linear-gradient" x1="315.76" y1="40.42" x2="386.45" y2="174.9" gradientUnits="userSpaceOnUse">
      <stop offset=".05" stop-color="#41d8dd"/>
      <stop offset=".22" stop-color="#42d1de"/>
      <stop offset=".47" stop-color="#46bfe1"/>
      <stop offset=".76" stop-color="#4da1e7"/>
      <stop offset="1" stop-color="#5583ee"/>
    </linearGradient>
    <linearGradient id="linear-gradient-2" x1="311.58" y1="126.95" x2="359.69" y2="127.64" gradientUnits="userSpaceOnUse">
      <stop offset="0" stop-color="#fff"/>
      <stop offset="1" stop-color="#000"/>
    </linearGradient>
  </defs>
  <text class="cls-6" transform="translate(48.72 151.81)"><tspan class="cls-4" x="0" y="0">T</tspan><tspan class="cls-1" x="47.36" y="0">ask</tspan></text>
  <rect class="cls-3" x="264.28" y="62.36" width="187" height="116" rx="12" ry="12"/>
  <g>
    <g>
      <path class="cls-5" d="M294.57,82.69v25.05c4.21-4.93,9.25-7.39,15.1-7.39,3,0,5.72,.56,8.13,1.67,2.42,1.12,4.24,2.54,5.46,4.28,1.22,1.74,2.06,3.66,2.51,5.76,.45,2.11,.67,5.38,.67,9.81v28.95h-13.06v-26.07c0-5.17-.25-8.46-.74-9.85-.5-1.39-1.37-2.5-2.63-3.32-1.25-.82-2.83-1.23-4.72-1.23-2.17,0-4.11,.53-5.81,1.58-1.7,1.05-2.95,2.64-3.74,4.76-.79,2.12-1.18,5.26-1.18,9.41v24.72h-13.06V82.69h13.06Z"/>
      <path class="cls-5" d="M368.46,150.81v-7.39c-1.8,2.63-4.16,4.71-7.09,6.23-2.93,1.52-6.02,2.28-9.27,2.28s-6.29-.73-8.92-2.18c-2.63-1.46-4.54-3.5-5.72-6.13s-1.77-6.27-1.77-10.92v-31.23h13.06v22.68c0,6.94,.24,11.19,.72,12.76s1.36,2.8,2.63,3.72c1.27,.91,2.88,1.37,4.83,1.37,2.23,0,4.23-.61,6-1.84,1.77-1.22,2.97-2.74,3.62-4.55,.65-1.81,.98-6.25,.98-13.31v-20.82h13.06v49.35h-12.13Z"/>
      <path class="cls-5" d="M389.84,150.81V82.69h13.06v24.54c4.03-4.58,8.8-6.88,14.31-6.88,6.01,0,10.98,2.18,14.92,6.53,3.93,4.35,5.9,10.6,5.9,18.75s-2.01,14.92-6.02,19.47c-4.01,4.55-8.88,6.83-14.62,6.83-2.82,0-5.6-.71-8.34-2.12-2.74-1.41-5.1-3.49-7.09-6.25v7.25h-12.13Zm12.97-25.75c0,5.11,.81,8.89,2.42,11.34,2.26,3.47,5.27,5.21,9.01,5.21,2.88,0,5.34-1.23,7.37-3.7,2.03-2.46,3.04-6.34,3.04-11.64,0-5.64-1.02-9.7-3.07-12.2-2.04-2.49-4.66-3.74-7.85-3.74s-5.73,1.22-7.81,3.65c-2.08,2.43-3.11,6.13-3.11,11.08Z"/>
    </g>
    <text class="cls-2" transform="translate(274.72 150.81)"><tspan x="0" y="0">hub</tspan></text>
  </g>
</svg>