<?xml version="1.0" encoding="utf-8"?>
<!-- Generator: Adobe Illustrator 27.0.0, SVG Export Plug-In . SVG Version: 6.00 Build 0)  -->
<svg version="1.1" id="Layer_1" xmlns="http://www.w3.org/2000/svg" xmlns:xlink="http://www.w3.org/1999/xlink" x="0px" y="0px"
	 viewBox="0 0 582 498" style="enable-background:new 0 0 582 498;" xml:space="preserve">
<style type="text/css">
	.st0{fill:#D1DEEC;}
</style>
<path class="st0" d="M356.6,28.6c21.5,15.6,42.9,31.1,64.3,46.6c29.1,21.1,58.3,42.3,87.4,63.4c24,17.4,48,34.9,72.1,52.2
	c1.5,1.1,2,2.2,2,4c-0.1,12.5,0,25.1,0,38.1h-49.9v233.6c0,2.6-1.3,3.9-4,3.9H298.3c0-0.1,0-0.3-0.1-0.4c3.6-1.8,7.2-3.5,10.7-5.4
	c13-6.8,24.2-15.7,33-27.4c3.6-4.7,7.5-9.3,11.2-13.9c0.5-0.6,0.9-1.3,1.5-2.1c-11.4-9.7-22.6-19.3-33.8-28.9
	c0.1-0.3,0.2-0.5,0.4-0.8h24.9v-61.2h-57.7v24.3c-0.3,0.1-0.7,0.2-1,0.4c-3.5-6.2-7.2-12.4-10.5-18.7c-1.5-3-2.3-6.4-3.4-9.6
	c-2.1-6-5.1-11.5-9.4-16.3c-1.1-1.2-1.9-3-2.1-4.7c-1.1-12-6.7-21.2-17-27.4c-18.2-11-36.5-21.9-54.7-33c-5.8-3.6-9.4-8.7-10.7-15.8
	c-3.8-20-8.2-39.9-12.5-59.8c-0.5-2.5-0.1-3.9,2-5.4c35.1-25.4,70.1-50.8,105.1-76.2c27.1-19.7,54.3-39.4,81.5-59.1
	C356.1,28.8,356.2,28.7,356.6,28.6L356.6,28.6z M366.9,249.6c-0.1,0.6-0.2,0.9-0.2,1.1c0,19.3,0,38.6-0.1,57.9c0,2,1,2.1,2.5,2.1
	c17.7,0,35.4-0.1,53,0c2.2,0,2.7-0.8,2.7-2.8c-0.1-16,0-31.9,0-47.9v-10.5C405.2,249.6,386.1,249.6,366.9,249.6L366.9,249.6z
	 M366.6,330.2v3c0,18.3,0.1,36.6-0.1,55c0,2.7,0.8,3.3,3.4,3.3c17.2-0.1,34.5-0.1,51.7,0c2.4,0,3.3-0.5,3.2-3.1
	c-0.1-18.4-0.1-36.8-0.1-55.2c0-1-0.1-1.9-0.1-2.9C405.2,330.2,386.1,330.2,366.6,330.2L366.6,330.2z M288.6,249.6
	c-0.1,0.9-0.2,1.5-0.2,2.1c0,18.9,0,37.7,0,56.6c0,2.1,0.8,2.5,2.7,2.5c17.4-0.1,34.9,0,52.3,0c0.9,0,1.8-0.1,2.8-0.2v-61.1
	C326.9,249.6,307.9,249.6,288.6,249.6L288.6,249.6z"/>
<path class="st0" d="M317.5,424.6c-4.8,6-10.6,10.2-16.9,13.9c-13,7.6-27,12.5-41.5,16c-1.2,0.3-3-0.4-4-1.3
	c-13.4-11.5-23.8-25.6-32.1-41.1c-6-11.2-10.6-22.9-13.9-35.1c-0.2-0.6-0.5-1.1-1-1.5c5.2,29.8,12.7,58.7,28.6,85.4
	c-3.2,1.5-6.3,3.5-9.6,4.5c-10.5,3.3-21.1,6.3-31.6,9.4c-1.6,0.5-2.9-0.1-4.1-1.3c-8.5-8.9-15.8-18.5-20.3-30
	c-0.1-0.3-0.3-0.6-0.8-0.9c0.7,12.7,1.8,25.4,5.1,38.2c-21.4,6.8-43,12.1-65.4,12.7c-2.4-11.2-4.3-22.3-7.3-33.1
	c-3-10.7-7.1-21.1-10.7-31.6c-0.3,0.1-0.6,0.2-0.9,0.3c0.3,4.4,0.7,8.9,1,13.3c1.2,17,0.7,34-0.6,51c-0.2,2.1-1.6,2.4-3.1,2.5
	c-5.6,0.5-11.1,1.1-16.7,1.3c-9.5,0.3-19.1,0.7-28.7,0.3c-5.2-0.2-10.4-1.7-15.6-2.9c-1.8-0.4-2.5-1.6-2-3.8
	c5.4-23.3,10.7-46.5,15.8-69.9c3.3-15.3,6.1-30.8,9-46.2c0.5-2.5,0.5-5.1,1.2-7.5c1.9-6.3,6.2-10.2,12.7-11.5
	c17.8-3.6,35.7-7.1,53.5-10.7c24.3-4.8,48.6-9.7,72.9-14.5c12.8-2.5,25.6-5.1,38.5-7.6c8.4-1.6,16.3,3.5,18.7,11.8
	c4,14,11.4,26.2,19.9,37.9c14,19.3,30.8,36,48.9,51.4C316.8,424.2,317.1,424.3,317.5,424.6L317.5,424.6z"/>
<path class="st0" d="M107.5,123.4c11.1,0,20.8,7.9,22.9,18.9c7.6,38.2,15.1,76.3,22.7,114.5c1.5,7.6,8.4,12.5,16,11
	c3.7-0.7,7,0.1,10.1,1.9c17.3,10.3,34.5,20.6,51.7,31c4.7,2.9,5.9,8,2.6,11.9c-1.2,1.4-3.1,2.5-4.9,2.9c-21.6,4.4-43.3,8.7-64.9,13
	c-34.3,6.8-68.6,13.7-102.8,20.5c-4.2,0.9-7.3-0.2-9.3-3.2c-1.9-2.8-1.6-6.3,0.9-9.8c12.2-16.5,24.3-33,36.7-49.2
	c1.6-2.1,4.7-3.6,7.4-4.5c8.4-2.6,12.3-8.7,10.6-17.3c-7.5-37.6-15.1-75.3-22.5-112.9C81.6,136.7,92.4,123.3,107.5,123.4
	L107.5,123.4z M98,153.2c0,5.9,4.9,10.8,10.8,10.8c5.8,0,10.8-5.1,10.7-10.9c-0.1-5.7-5.1-10.7-10.8-10.7
	C103,142.3,98,147.4,98,153.2L98,153.2z"/>
<path class="st0" d="M102.5,56.9c28.9-0.7,57-24.1,60.6-57.3c2,15.6,8.4,29.2,19.8,40c11.4,10.8,25,16.7,39.5,17.3
	c-33,4.3-53.2,23.4-59.5,58c-1.8-16-8.2-29.4-19.6-40.3C131.8,63.7,118.1,58.2,102.5,56.9L102.5,56.9z"/>
<path class="st0" d="M50.2,56.2c3.8,30.5,28.3,47,50.7,47.8c-13.7,1.2-25.1,5.9-34.5,15c-9.5,9.2-14.6,20.4-16.2,33.3
	c-1.5-13-6.6-24.1-16-33.3c-9.4-9.1-20.6-13.8-33.8-15c13.2-1,24.4-5.8,33.7-14.8C43.5,80.3,48.7,69.2,50.2,56.2L50.2,56.2z"/>
</svg>
